<svg xmlns="http://www.w3.org/2000/svg" xmlns:xlink="http://www.w3.org/1999/xlink" width="250.37" height="39.089" viewBox="0 0 250.37 39.089">
  <defs>
    <clipPath id="clip-path">
      <rect id="Rectangle_93" data-name="Rectangle 93" width="250.37" height="39.089" fill="#fff"/>
    </clipPath>
  </defs>
  <g id="Group_13525" data-name="Group 13525" clip-path="url(#clip-path)">
    <path id="Path_50" data-name="Path 50" d="M17.983,142.533A11.254,11.254,0,0,1,7.8,136.162l2.752-1.341a8.271,8.271,0,0,0,14.872,0l2.752,1.342a11.257,11.257,0,0,1-10.188,6.37" transform="translate(-6.51 -112.594)" fill="#fff"/>
    <path id="Path_51" data-name="Path 51" d="M22.945,55.312H0l.319-1.8a11.33,11.33,0,0,1,22.307,0ZM3.869,52.25H19.077a8.275,8.275,0,0,0-15.208,0" transform="translate(0 -36.894)" fill="#fff"/>
    <rect id="Rectangle_92" data-name="Rectangle 92" width="3.611" height="29.741" transform="translate(27.148)" fill="#fff"/>
    <path id="Path_52" data-name="Path 52" d="M363.957,43.81l5.183,20.351,4.716-20.351h5.523L384.053,64.2l5.183-20.394h3.7l-6.2,22.518h-5.438l-4.674-20.436L371.9,66.328h-5.481L360.26,43.81Z" transform="translate(-300.866 -36.587)" fill="#fff"/>
    <path id="Path_53" data-name="Path 53" d="M567.45,53.09a11.418,11.418,0,0,1,11.3-11.6,9.7,9.7,0,0,1,8.327,4.5V41.873h3.611V64.391h-3.611V60.27a9.765,9.765,0,0,1-8.327,4.461,11.509,11.509,0,0,1-11.3-11.642m11.6,8.328a8.328,8.328,0,0,0,0-16.655,8.329,8.329,0,0,0,0,16.655" transform="translate(-473.897 -34.651)" fill="#fff"/>
    <path id="Path_54" data-name="Path 54" d="M976.684,42.519v4.419a7.574,7.574,0,0,1,7.35-4.674,14.563,14.563,0,0,1,1.869.17v3.824a8.425,8.425,0,0,0-2.252-.3c-3.909,0-6.968,2.889-6.968,7.733V65.037h-3.611V42.519Z" transform="translate(-812.646 -35.296)" fill="#fff"/>
    <path id="Path_55" data-name="Path 55" d="M1060.435,53.089a11.536,11.536,0,1,1,11.514,11.641,11.541,11.541,0,0,1-11.514-11.641m19.671,0a8.138,8.138,0,1,0-8.157,8.285,8.215,8.215,0,0,0,8.157-8.285" transform="translate(-885.605 -34.65)" fill="#fff"/>
    <path id="Path_56" data-name="Path 56" d="M1225.625,43.81V56.344c0,4.5,3.1,6.968,6.543,6.968,4.121,0,7.138-3.314,7.138-7.988V43.81h3.612V66.328h-3.612V62.419a8.92,8.92,0,0,1-7.775,4.291c-4.971,0-9.517-3.441-9.517-9.3V43.81Z" transform="translate(-1020.546 -36.587)" fill="#fff"/>
    <path id="Path_57" data-name="Path 57" d="M1381.277,41.872v4.036a9.829,9.829,0,0,1,8.327-4.419,11.625,11.625,0,0,1,0,23.24,9.82,9.82,0,0,1-8.327-4.461V73.313h-3.611V41.872Zm16.188,11.216a8.161,8.161,0,0,0-8.157-8.285,8.329,8.329,0,1,0,8.157,8.285" transform="translate(-1150.536 -34.65)" fill="#fff"/>
    <path id="Path_58" data-name="Path 58" d="M822.533,198.024a11.257,11.257,0,0,1-10.188-6.371l2.752-1.341a8.271,8.271,0,0,0,14.873,0l2.752,1.342a11.258,11.258,0,0,1-10.188,6.371" transform="translate(-678.417 -158.935)" fill="#fff"/>
    <path id="Path_59" data-name="Path 59" d="M816.651,62.912a11.337,11.337,0,1,1,0-22.674s11.337,5.086,11.337,11.337a11.35,11.35,0,0,1-11.337,11.336m0-19.612a8.275,8.275,0,1,0,8.275,8.275,8.285,8.285,0,0,0-8.275-8.275" transform="translate(-672.545 -33.604)" fill="#fff"/>
    <path id="Path_60" data-name="Path 60" d="M828.008,51.576V40.888h-3.062v3.927a9.45,9.45,0,0,0-8.3-4.577,11.337,11.337,0,1,0,0,22.674,9.45,9.45,0,0,0,8.3-4.577m-16.571-6.76a8.275,8.275,0,1,1,8.275,8.275,8.285,8.285,0,0,1-8.275-8.275" transform="translate(-672.545 -33.605)" fill="#fff"/>
    <path id="Path_61" data-name="Path 61" d="M231.316,142.533a11.254,11.254,0,0,1-10.188-6.371l2.752-1.341a8.271,8.271,0,0,0,14.872,0l2.752,1.342a11.257,11.257,0,0,1-10.188,6.37" transform="translate(-184.672 -112.594)" fill="#fff"/>
    <path id="Path_62" data-name="Path 62" d="M236.278,55.312H213.333l.319-1.8a11.33,11.33,0,0,1,22.307,0ZM217.2,52.25H232.41a8.275,8.275,0,0,0-15.208,0" transform="translate(-178.162 -36.894)" fill="#fff"/>
  </g>
</svg>
